Young Park Seol-Hee is eagerly planning her wedding to a young anti-Communist activist when the North Koreans invade. Her fiancé is forced to flee, leaving her behind with her family in their tiny, rural South Korean village. Rather than resist the North Korean regiment that comes to occupy the area, the townspeople (to Seol-Hee's dismay) decide to cooperate with them in order to ensure their own survival. The North Koreans, however, turn out not to be all that Seol-Hee expected. She soon realizes that there is a history between her family and that of the regiment's leader, Lieutenant Kim Jeong-woong. In between the hilarious day to day antics of Seol-Hee's eccentric family and the hard realities of war, the attachment between Seol-Hee and Jeong-woong grows. As the occupation continues, Jeong-woong becomes torn between trying to follow the increasingly harsh orders from his general and protecting the people that he has come to love and care for so much. 

Format                         : OGG
Format/Info                    : Advanced Video Codec
File size                      : 1.76 GiB
Duration                       : 2h 15mn
Overall bit rate mode          : Variable
Overall bit rate               : 1 862 Kbps

Video
ID                             : 0 (0x0)
Format                         : AVC
Format/Info                    : Advanced Video Codec
Codec ID                       : H264
Duration                       : 2h 15mn
Bit rate                       : 1 652 Kbps
Width                          : 640 pixels
Height                         : 344 pixels
Display aspect ratio           : 1.860
Frame rate                     : 23.976 fps
Color space                    : YUV
Chroma subsampling             : 4:2:0
Bits/(Pixel*Frame)             : 0.313
Stream size                    : 1.56 GiB (89%)

Audio
ID                             : 1 (0x1)
Format                         : Vorbis
Format settings, Floor         : 1
Duration                       : 2h 15mn
Bit rate mode                  : Variable
Bit rate                       : 128 Kbps
Channel(s)                     : 2 channels
Sampling rate                  : 48.0 KHz
Compression mode               : Lossy
Stream size                    : 124 MiB (7%)
Writing library                : libVorbis 1.0 (UTC 2002-07-17)

Menu
00:00:00.000                   : Ch. 01 @ 00:00:00
00:05:28.661                   : Ch. 02 @ 00:05:28
00:08:22.835                   : Ch. 03 @ 00:08:22
00:13:30.009                   : Ch. 04 @ 00:13:30
00:19:39.745                   : Ch. 05 @ 00:19:39
00:24:54.659                   : Ch. 06 @ 00:24:54
00:29:06.211                   : Ch. 07 @ 00:29:06
00:35:03.501                   : Ch. 08 @ 00:35:03
00:38:32.877                   : Ch. 09 @ 00:38:32
00:44:08.379                   : Ch. 10 @ 00:44:08
00:47:07.424                   : Ch. 11 @ 00:47:07
00:51:47.971                   : Ch. 12 @ 00:51:47
00:57:18.735                   : Ch. 13 @ 00:57:18
01:01:33.456                   : Ch. 14 @ 01:01:33
01:09:11.547                   : Ch. 15 @ 01:09:11
01:17:07.756                   : Ch. 16 @ 01:17:07
01:23:14.823                   : Ch. 17 @ 01:23:14
01:29:43.778                   : Ch. 18 @ 01:29:43
01:37:32.947                   : Ch. 19 @ 01:37:32
01:44:16.383                   : Ch. 20 @ 01:44:16
01:53:09.682                   : Ch. 21 @ 01:53:09
02:00:57.350                   : Ch. 22 @ 02:00:57
02:10:39.598                   : Ch. 23 @ 02:10:39
02:11:53.972                   : Ch. 24 @ 02:11:53

